<svg xmlns="http://www.w3.org/2000/svg" id="Layer_1" viewBox="0 0 451.728 354.757"><defs><style>.cls-1{fill:#fcf0a2;}.cls-2{fill:#86a6bf;}.cls-3{fill:#c7d9e6;}.cls-4{fill:#31e5b8;}</style></defs><path class="cls-4" d="M166.04,68.885c3.897,78.46,115.775,78.596,119.766,0,19.279.036,38.609-.096,57.887,0v64.851c0,22.931,0,45.911,0,68.842,0,47.397-.063,94.824.076,142.236-2.982,4.151-3.103,8.399-9.028,9.945H117.106c-4.858-1.796-8.342-5.719-8.975-10.982l.023-141.198c0-22.931,0-45.911,0-68.842v-64.851c19.278-.096,38.608.036,57.887,0ZM151.813,177.848c-3.239.621-7.072,3.987-7.68,7.32-1.16,6.364-.896,33.92-.073,40.879,1.366,11.551,18.309,11.155,19.927.918,1.067-6.753,1.04-33.972.101-40.893-.787-5.806-6.625-9.306-12.275-8.223ZM296.55,177.818c-2.948.359-8.149,4.305-8.726,7.322-1.149,6.008-.825,34.166-.044,40.906,1.279,11.037,17.806,10.556,19.769,1.76,1.157-5.183,1.057-35.833.266-41.743-.621-4.641-6.532-8.821-11.266-8.245Z"></path><path class="cls-2" d="M343.693,202.577c0-22.931,0-45.911,0-68.842l50.192-.21c6.41-2.597,8.25-7.665,8.736-14.215.698-9.428,1.094-29.885-.13-38.865-.872-6.394-4.838-10.819-11.39-11.561-13.771-1.56-32.944.071-47.406,0-19.278-.096-38.608.036-57.887,0-39.904-.074-79.862-.074-119.766,0-19.279.036-38.609-.096-57.887,0-14.462.072-33.636-1.559-47.406,0-6.553.742-10.519,5.167-11.39,11.561-1.224,8.979-.829,29.437-.13,38.865.485,6.549,2.326,11.618,8.736,14.215l50.192.21c0,22.931,0,45.911,0,68.842-24.476-1.462-51.17,1.945-75.389.036-17.864-1.408-30.05-14.791-31.439-32.425,3.356-44.639-4.415-95.709.158-139.592C3.241,13.743,16.771.862,33.756,0l385.326.007c17.053,1.468,29.867,14.526,31.387,31.48,3.959,44.161-2.958,93.946.052,138.701-1.297,16.503-12.235,29.658-28.759,32.111l-78.069.278Z"></path><path class="cls-1" d="M285.806,68.885c-3.991,78.596-115.869,78.46-119.766,0,39.904-.074,79.862-.074,119.766,0Z"></path><path class="cls-3" d="M108.153,68.885v64.851l-50.192-.21c-6.41-2.597-8.25-7.665-8.736-14.215-.698-9.428-1.094-29.885.13-38.865.872-6.394,4.838-10.819,11.39-11.561,13.771-1.56,32.944.071,47.406,0Z"></path><path class="cls-3" d="M343.693,133.735v-64.851c14.462.072,33.636-1.559,47.406,0,6.553.742,10.519,5.167,11.39,11.561,1.224,8.979.829,29.437.13,38.865-.485,6.549-2.326,11.618-8.736,14.215l-50.192.21Z"></path><path class="cls-1" d="M151.813,177.848c5.65-1.083,11.488,2.418,12.275,8.223.939,6.921.966,34.14-.101,40.893-1.618,10.237-18.56,10.633-19.927-.918-.823-6.959-1.087-34.515.073-40.879.607-3.332,4.441-6.699,7.68-7.32Z"></path><path class="cls-1" d="M296.55,177.818c4.734-.576,10.645,3.605,11.266,8.245.791,5.909.891,36.56-.266,41.743-1.963,8.796-18.49,9.277-19.769-1.76-.781-6.74-1.106-34.898.044-40.906.577-3.016,5.778-6.963,8.726-7.322Z"></path></svg>